# xmcd
#
# Track frame offsets:
#	150
#	19854
#	42501
#	59528
#	84258
#	103113
#	126473
#	143285
#	159198
#	176398
#	196462
#	215160
#	245531
#
# Disc length: 4476 seconds
#
# Revision: 0
# Processed by: cddbd v1.5.2PL0 Copyright (c) Steve Scherf et al.
# Submitted via: audiograbber 1.83.01
#
DISCID=b3117a0d
DTITLE=Demi EVANS - My America
DYEAR=2009
DGENRE=Country
TTITLE0=Breathing water
TTITLE1=Blues in pink
TTITLE2=Trouble in mind
TTITLE3=The next one is a train
TTITLE4=Speak the truth
TTITLE5=Too bold to be ashamed
TTITLE6=My America
TTITLE7=Don't cross your fingers
TTITLE8=Awake this morning REMIX
TTITLE9=See me bawling
TTITLE10=Journey to silence
TTITLE11=Living hands
TTITLE12=Video
EXTD=
EXTT0=
EXTT1=
EXTT2=
EXTT3=
EXTT4=
EXTT5=
EXTT6=
EXTT7=
EXTT8=
EXTT9=
EXTT10=
EXTT11=
EXTT12=
PLAYORDER=
